<?xml version="1.0" encoding="utf-8"?>
<!-- Generator: Adobe Illustrator 16.0.0, SVG Export Plug-In . SVG Version: 6.00 Build 0)  -->
<!DOCTYPE svg PUBLIC "-//W3C//DTD SVG 1.1//EN" "http://www.w3.org/Graphics/SVG/1.1/DTD/svg11.dtd">
<svg version="1.1" xmlns="http://www.w3.org/2000/svg" xmlns:xlink="http://www.w3.org/1999/xlink" x="0px" y="0px" width="2330px"
	 height="1770px" viewBox="0 0 2330 1770" enable-background="new 0 0 2330 1770" xml:space="preserve">
<g id="Layer_1">
</g>
<g id="Layer_2">
	<g>
		<path fill="#FFFFFF" d="M2072.521,763.981c-22.257-114.018-71.039-213.936-144.991-296.98
			c-65.264-73.244-139.285-128.987-220.006-165.679c-80.455-36.572-169.534-55.116-264.763-55.116
			c-19.05,0-38.661,0.744-58.288,2.209c-80.145,5.98-159.667,29.357-236.346,69.476c-39.953,20.747-77.732,45.896-112.288,74.749
			c-2.052,1.712-2.394,4.736-0.775,6.862c0.416,0.547,0.713,0.985,0.948,1.33c0.646,0.95,1.452,2.131,2.961,2.861
			c43.43,21.396,85.288,46.695,124.422,75.2c1.813,1.315,4.237,1.981,7.205,1.981c3.621,0,7.479-1.01,10.084-2.647
			c81.107-51.365,168.234-77.409,258.963-77.409c29.329,0,59.568,2.724,89.877,8.097c121.336,21.502,221.73,82.275,298.395,180.629
			c86.765,111.244,118.836,237.319,95.325,374.725c-16.541,96.627-55.852,179.735-116.84,247.018
			c-98.277,108.326-218.509,163.256-357.354,163.26c-24.186,0.002-49.302-1.681-74.651-4.999
			c-104.74-13.712-195.925-59.125-271.021-134.978c-61.871-62.461-125.035-125.7-186.119-186.857
			c-35.135-35.177-71.467-71.552-107.154-107.38c-11.25-11.29-27.01-24.596-49.215-27.313c-3.453-0.423-6.941-0.638-10.366-0.638
			c-31.097,0-57.785,16.893-71.393,45.187c-15.033,31.284-8.856,62.718,17.396,88.519c57.834,56.744,116.363,114.72,172.965,170.788
			c50.017,49.546,101.738,100.778,152.785,150.969c18.741,18.52,39.038,35.783,60.338,51.319
			c39.001,28.306,81.96,51.41,127.682,68.672c43.431,16.398,90.802,28.067,140.798,34.682c30.613,4.041,61.177,6.092,90.84,6.092
			c0.006,0,0.006,0,0.012,0c46.701,0,93.031-5.088,137.688-15.121c71.653-16.085,138.151-42.764,197.647-79.295
			c59.341-36.436,113.192-83.581,160.06-140.128c77.242-93.266,124.697-201.805,141.047-322.595
			C2087.898,902.304,2085.925,832.494,2072.521,763.981z"/>
		<path fill="#FFFFFF" d="M981.071,1509.004c-10.846-10.235-21.706-20.453-32.566-30.673
			c-33.167-31.205-67.463-63.476-100.742-95.663c-9.836-9.508-18.737-13.386-30.725-13.386c-0.424,0-0.851,0.004-1.291,0.016
			c-10.197,0.248-22.283,0.502-34.613,0.502c-39.648,0-69.653-2.781-97.286-9.019c-102.714-23.219-190.625-90.834-241.192-185.512
			c-50.548-94.643-57.839-205.225-20.001-303.391c54.523-141.411,193.088-236.422,344.801-236.422
			c20.845,0,41.792,1.852,62.259,5.503c80.753,14.404,145.895,48.09,199.146,102.981c41.64,42.965,84.731,85.872,126.402,127.366
			c26.678,26.563,54.264,54.032,81.191,81.238c14.779,14.936,30.936,22.196,49.396,22.196c3.371,0,6.859-0.254,10.369-0.754
			c32.838-4.685,54.593-20.894,64.66-48.184c10.871-29.616,5.149-56.879-16.545-78.84c-19.561-19.806-39.327-40.085-58.442-59.697
			c-51.669-53.012-105.099-107.829-160.167-159.143c-103.772-96.736-221.032-145.786-348.52-145.786
			c-53.304,0-108.949,8.698-165.387,25.85c-124.871,37.92-229.593,121.494-294.876,235.326
			c-65.015,113.364-85.026,246.194-56.349,374.021c13.236,58.982,36.058,114.551,67.831,165.164
			c30.979,49.349,69.717,92.84,115.138,129.266c45.424,36.428,96.275,64.783,151.143,84.274
			c56.278,19.996,115.435,30.159,175.826,30.212c28.66,0.029,57.325,0.041,85.988,0.041c38.755,0,77.509-0.02,116.259-0.039
			l1.774-0.002c2.415,0,4.724-0.137,7.648-0.313c1.357-0.08,2.844-0.17,4.524-0.256c2.009-0.102,3.762-1.396,4.449-3.285
			c0.687-1.89,0.174-4.007-1.302-5.374C986.925,1514.493,983.991,1511.754,981.071,1509.004z"/>
	</g>
	<path fill="none" d="M143.027,767.848c63.547-164.065,174.32-285.747,331.74-364.503c81.673-40.876,168.729-62.356,259.78-67.122
		c44.579-2.313,89.124,0.176,133.44,6.115c4.014,0.543,9.799-1.244,12.586-4.1c63.722-65.055,136.28-117.897,218.093-157.95
		c79.359-38.843,162.873-63.881,250.786-73.903c5.164-0.59,10.332-1.155,15.501-1.702c0.635-0.067,1.271-0.13,1.906-0.197
		c14.626-1.539,29.269-2.958,43.902-4.463c0.106-0.011,0.214-0.021,0.32-0.033H100.043v868.926
		c0.719-3.768,1.823-7.534,2.051-11.319C106.003,892.262,119.414,828.819,143.027,767.848z"/>
	<path fill="none" d="M2217.02,1022.791c-16.373,98.346-51.766,189.752-104.357,274.272
		c-79.867,128.322-187.835,226.175-323.519,293c-78.311,38.752-162.745,63.653-249.559,73.604
		c-19.284,2.227-38.549,4.223-57.833,6.344H733.495c-3.769-0.701-7.521-1.822-11.324-2.051
		c-75.45-4.748-148.042-21.936-217.234-52.194c-150.637-65.877-262.952-172.649-336.474-319.614
		c-32.487-64.823-53.512-134.777-62.145-206.762c-2.121-17.504-4.189-34.99-6.275-52.475v633.113h2129.914V920.049
		c-0.666,3.803-1.508,7.535-1.946,11.32C2224.383,961.854,2222.033,992.534,2217.02,1022.791z"/>
	<path fill="none" d="M1475.719,99.99c0.026,0.004,0.052,0.008,0.078,0.012c1.896,0.297,3.797,0.608,5.698,0.906
		c0.056,0.009,0.112,0.018,0.168,0.026c0.765,0.119,1.529,0.231,2.294,0.344c0.288,0.042,0.576,0.088,0.865,0.129
		c1.034,0.146,2.068,0.283,3.102,0.404c31.606,3.68,63.388,5.993,94.698,11.231c97.677,16.382,188.606,51.424,272.751,103.477
		c129.021,79.825,227.348,187.876,294.523,323.908c38.85,78.305,63.793,162.762,73.714,249.601
		c2.279,19.991,4.225,39.983,6.347,59.939v-0.001V99.99H1475.719z"/>
	<path fill="#DA1F26" d="M1410.762,100.022c-14.634,1.505-29.276,2.924-43.902,4.463
		C1381.485,102.947,1396.128,101.528,1410.762,100.022z"/>
	<path fill="#DA1F26" d="M1364.953,104.682c-5.169,0.547-10.337,1.112-15.501,1.702
		C1354.616,105.794,1359.784,105.229,1364.953,104.682z"/>
	<path fill="#DA1F26" d="M1483.957,101.278c0.288,0.042,0.576,0.088,0.865,0.129C1484.533,101.366,1484.245,101.32,1483.957,101.278
		z"/>
	<path fill="#DA1F26" d="M1481.495,100.908c0.056,0.009,0.112,0.018,0.168,0.026
		C1481.607,100.925,1481.551,100.917,1481.495,100.908z"/>
	<path fill="#DA1F26" d="M1475.719,99.99L1475.719,99.99c0.026,0.004,0.052,0.008,0.078,0.012
		C1475.771,99.998,1475.745,99.994,1475.719,99.99z"/>
	<path fill="#DA1F26" d="M1366.859,104.485c-0.635,0.067-1.271,0.129-1.906,0.197
		C1365.588,104.615,1366.225,104.552,1366.859,104.485z"/>
	<path fill="#DA1F26" d="M1475.797,100.002c1.896,0.297,3.797,0.608,5.698,0.906C1479.594,100.61,1477.693,100.299,1475.797,100.002
		z"/>
	<path fill="#DA1F26" d="M1481.663,100.934c0.765,0.119,1.529,0.231,2.294,0.344
		C1483.192,101.166,1482.428,101.053,1481.663,100.934z"/>
	<path fill="#DA1F26" d="M1411.082,99.99L1411.082,99.99c-0.106,0.011-0.214,0.021-0.32,0.033
		C1410.868,100.011,1410.976,100.001,1411.082,99.99z"/>
	<path fill="#DA1F26" d="M1484.822,101.407c1.034,0.146,2.068,0.283,3.102,0.404C1486.891,101.69,1485.856,101.553,1484.822,101.407
		z"/>
	<path fill="#DA1F26" d="M728.879,1720.005l-4.538-0.844c-2.05-0.38-3.848-0.78-5.293-1.101c-0.405-0.09-0.899-0.199-1.301-0.285
		c-81.255-5.26-159.598-24.168-232.862-56.207c-160.994-70.407-282.506-185.828-361.163-343.059
		c-35.154-70.143-57.725-145.24-67.07-223.172c-1.562-12.879-3.101-25.813-4.64-38.744l-1.991-16.709v-75.697l0.886-4.642
		c0.358-1.877,0.73-3.553,1.029-4.896c0.097-0.438,0.216-0.975,0.308-1.402c4.364-70.645,19.21-139.091,44.134-203.447
		c67.92-175.357,187.696-306.962,355.999-391.163c85.448-42.766,179.505-67.106,279.554-72.342
		c11.824-0.613,23.924-0.923,35.989-0.923c28.758,0,58.8,1.773,89.521,5.28c64.936-63.622,138.586-115.787,219.222-155.263
		c85.23-41.717,175.102-68.188,267.122-78.678c5.285-0.604,10.59-1.184,15.896-1.746l1.933-0.2
		c8.573-0.902,17.142-1.761,25.71-2.621c6.104-0.613,12.212-1.226,18.316-1.854l2.831-0.295h71.268l3.849,0.623
		c0.985,0.154,5.784,0.919,5.784,0.919v0c0.618,0.097,1.236,0.187,1.855,0.278l0.712,0.106c0.61,0.085,1.22,0.167,1.829,0.238
		c9.646,1.123,19.699,2.153,29.422,3.15c22.005,2.256,44.759,4.588,67.69,8.425c102.476,17.188,200.314,54.289,290.819,110.276
		c136.666,84.554,241.992,200.391,313.053,344.292c41.504,83.654,67.947,173.196,78.557,266.056
		c1.512,13.257,2.887,26.585,4.217,39.475c0.717,6.954,1.434,13.905,2.173,20.852l0.28,2.634v77.077l-0.75,4.28
		c-0.252,1.438-0.523,2.867-0.795,4.293c-0.302,1.578-0.643,3.368-0.733,4.153l-0.018,0.152c-1.138,9.546-2.179,19.445-3.185,29.019
		c-2.212,21.02-4.498,42.756-8.129,64.665c-17.158,103.063-54.579,201.464-111.229,292.507
		c-84.616,135.952-200.314,240.736-343.886,311.443c-83.64,41.389-173.153,67.79-265.971,78.43
		c-12.68,1.463-25.51,2.846-37.916,4.182c-6.715,0.725-13.427,1.446-20.144,2.187l-2.728,0.299H728.879z M1114.952,1374.668
		c69.32,50.306,148.927,80.838,243.361,93.332c28.222,3.725,56.361,5.615,83.62,5.615c42.658,0,84.928-4.639,125.632-13.784
		c131.196-29.448,241.346-97.022,327.401-200.846c70.573-85.214,113.943-184.436,128.895-294.897l0.014-0.105
		c8.686-63.153,6.883-126.894-5.356-189.449c-20.346-104.231-64.786-195.39-132.09-270.969
		c-119.647-134.275-268.921-202.364-443.667-202.364c-17.688,0-35.92,0.692-54.188,2.057
		c-72.621,5.419-144.937,26.737-214.942,63.363l-0.136,0.071c-14.572,7.567-28.83,15.778-42.706,24.589
		c14.391,8.685,28.535,17.768,42.4,27.226c83.803-48.248,173.318-72.682,266.458-72.682c32.541,0,66.014,3.008,99.485,8.942
		c135.144,23.949,246.909,91.569,332.191,200.98c96.665,123.938,132.385,264.508,106.156,417.794
		c-18.335,107.102-62.174,199.514-130.3,274.67c-109.165,120.329-243.111,181.332-398.131,181.332
		c-26.574,0-54.095-1.839-81.798-5.468c-117.149-15.334-219.088-66.081-302.985-150.824
		c-61.777-62.364-124.894-125.557-185.933-186.67c-35.154-35.195-71.504-71.588-107.222-107.447
		c-9.62-9.653-14.259-11.202-16.91-11.528c-1.245-0.152-2.481-0.229-3.679-0.229c-9.711,0-17.453,4.979-21.799,14.017
		c-3.55,7.388-5.339,13.963,6.379,25.479c57.899,56.807,116.478,114.834,173.127,170.949
		c49.979,49.508,101.661,100.702,152.643,150.827l0.09,0.088C1077.735,1345.314,1095.899,1360.766,1114.952,1374.668z
		 M777.206,537.333c-47.875,0-98.134,7.896-149.38,23.471c-228.762,69.469-366.48,308.728-313.542,544.698
		c48.311,215.276,235.947,365.765,456.296,365.954c28.632,0.029,57.253,0.041,85.881,0.041c1.539,0,3.079,0,4.618,0
		c-16.476-15.605-32.98-31.343-49.291-47.099c-9.293,0.211-19.827,0.395-30.651,0.395c-29.549,0-68.689-1.18-109.412-10.37
		c-118.33-26.749-219.51-104.476-277.609-213.257c-58.082-108.746-66.394-235.974-22.807-349.058
		c30.881-80.091,85.324-148.354,157.448-197.416c34.938-23.767,72.99-42.213,113.097-54.826
		c40.941-12.875,83.2-19.404,125.602-19.404c24.078,0,48.278,2.14,71.928,6.359c91.227,16.272,168.268,56.255,228.982,118.839
		c41.316,42.63,84.23,85.361,125.731,126.685c26.748,26.634,54.407,54.174,81.477,81.525c5.814,5.877,8.605,5.877,10.274,5.877
		c0.782,0,1.657-0.068,2.601-0.203c16.988-2.425,19.283-8.645,20.801-12.761c3.856-10.504,1.658-15.384-4.07-21.183
		c-19.693-19.94-39.524-40.287-58.703-59.963c-51.214-52.545-104.173-106.879-158.273-157.29
		C994.942,581.41,890.31,537.333,777.206,537.333z"/>
	<path fill="#FFFFFF" d="M1475.719,99.99c0.026,0.004,0.052,0.008,0.078,0.012c1.896,0.297,3.797,0.608,5.698,0.906
		c0.056,0.009,0.112,0.018,0.168,0.026c0.765,0.119,1.529,0.231,2.294,0.344c0.288,0.042,0.576,0.088,0.865,0.129
		c1.034,0.146,2.068,0.283,3.102,0.404c31.606,3.68,63.388,5.993,94.698,11.231c97.677,16.382,188.606,51.424,272.751,103.477
		c129.021,79.825,227.348,187.876,294.523,323.908c38.85,78.305,63.793,162.762,73.714,249.601
		c2.279,19.991,4.225,39.983,6.347,59.939v70.082c-0.666,3.803-1.508,7.535-1.946,11.32c-3.628,30.485-5.978,61.165-10.991,91.422
		c-16.373,98.346-51.766,189.752-104.357,274.272c-79.867,128.322-187.835,226.175-323.519,293
		c-78.311,38.752-162.745,63.653-249.559,73.604c-19.284,2.227-38.549,4.223-57.833,6.344H733.495
		c-3.769-0.701-7.521-1.822-11.324-2.051c-75.45-4.748-148.042-21.936-217.234-52.194
		c-150.637-65.877-262.952-172.649-336.474-319.614c-32.487-64.823-53.512-134.777-62.145-206.762
		c-2.121-17.504-4.189-34.99-6.275-52.475v-67.999c0.719-3.768,1.823-7.534,2.051-11.319c3.91-65.334,17.32-128.778,40.933-189.749
		c63.547-164.065,174.32-285.747,331.74-364.503c81.673-40.876,168.729-62.356,259.78-67.122
		c11.128-0.577,22.251-0.855,33.373-0.855c33.428,0,66.813,2.513,100.067,6.97c0.484,0.065,0.993,0.097,1.52,0.097
		c3.845,0,8.615-1.685,11.066-4.197c63.722-65.055,136.28-117.897,218.093-157.95c79.359-38.843,162.873-63.881,250.786-73.903
		c5.164-0.59,10.332-1.155,15.501-1.702c0.635-0.067,1.271-0.13,1.906-0.197c14.626-1.539,29.269-2.958,43.902-4.463
		c0.106-0.011,0.214-0.021,0.32-0.033H1475.719 M1170.6,475.875c2.616,0,5.587-0.728,7.408-1.87
		c82.059-51.969,169.314-78.19,261.64-78.186c29.722,0.001,59.987,2.72,90.751,8.173c123.78,21.936,224.509,83.749,301.466,182.479
		c87.143,111.73,120.362,238.073,96.312,378.642c-16.129,94.209-53.888,178.729-118.066,249.531
		c-99.683,109.877-220.762,164.902-361.06,164.902c-24.515,0-49.625-1.68-75.301-5.043
		c-106.268-13.91-198.003-59.728-273.926-136.417c-97.451-98.378-195.531-196.11-293.262-294.227
		c-13.025-13.069-27.522-23.583-46.28-25.878c-3.288-0.402-6.544-0.601-9.758-0.601c-28.815,0-54.156,15.888-66.884,42.354
		c-12.622,26.263-10.992,55.873,16.391,82.784c108.95,106.896,216.936,214.771,325.763,321.771
		c18.626,18.406,38.601,35.395,59.76,50.826c79.499,57.697,169.13,89.602,266.195,102.444c30.155,3.98,60.216,6.048,90.186,6.048
		c45.748,0,91.282-4.817,136.604-15c143.081-32.115,261.603-105.108,354.95-217.731c77.081-93.07,123.692-200.018,139.943-320.087
		c9.417-68.47,7.45-138.024-5.819-205.852c-21.65-110.907-68.597-210.145-143.818-294.613
		c-130.441-146.391-291.448-219.128-481.032-219.12c-19.008,0.001-38.336,0.733-57.915,2.196
		c-82.654,6.167-160.84,30.433-234.413,68.926c-39.703,20.617-77.051,45.479-111.387,74.148c1.28,1.683,1.596,2.47,2.139,2.733
		c43.807,21.582,85.678,46.887,125.147,75.638C1167.318,475.563,1168.883,475.875,1170.6,475.875 M856.499,1521.493
		c39.351,0,78.708-0.021,118.054-0.041c3.366,0,6.731-0.299,11.919-0.561c0,0,0,0,0.001,0l0,0c0,0,0,0-0.001,0
		c-2.958-2.74-5.901-5.49-8.835-8.253c-44.544-42.031-89.333-83.802-133.352-126.378c-8.242-7.966-15.842-11.979-27.247-11.979
		c-0.385,0-0.775,0.004-1.169,0.014c-11.583,0.281-23.162,0.504-34.736,0.504c-32.974,0-65.871-1.802-98.388-9.142
		c-218.425-49.373-345.256-286.728-264.758-495.576c55.774-144.656,198.174-239.628,349.469-239.623
		c20.94,0.001,42.064,1.821,63.138,5.581c77.693,13.859,145.887,46.728,201.86,104.424
		c68.263,70.433,138.558,138.852,207.558,208.566c13.321,13.464,28.316,20.713,45.838,20.713c3.137,0,6.358-0.232,9.662-0.703
		c28.119-4.014,50.505-17.398,60.672-44.958c9.956-27.123,5.136-52.809-15.409-73.605
		c-72.417-73.325-143.116-148.489-218.461-218.695C1019.351,535.799,903.4,487.338,777.206,487.338
		c-52.909,0-107.63,8.523-163.933,25.634c-256.343,77.845-406.366,342.409-347.798,603.469
		c53.379,237.862,261.515,404.8,505.062,405.011C799.19,1521.481,827.841,1521.493,856.499,1521.493 M1484.151,0h-8.433h-64.637
		h-5.152l-5.126,0.529l0.136-0.013l-0.504,0.051c-6.041,0.622-12.083,1.228-18.125,1.834c-8.459,0.85-17.206,1.728-25.922,2.644
		l-0.596,0.062c-0.472,0.048-0.943,0.097-1.415,0.146c-5.827,0.618-11.169,1.204-16.296,1.79
		c-97.679,11.135-193.045,39.212-283.417,83.445c-45.715,22.38-89.648,48.78-130.585,78.471
		c-29.286,21.239-57.601,44.57-84.54,69.642c-24.432-2.142-48.397-3.223-71.62-3.224c-12.929,0-25.902,0.333-38.561,0.99
		c-107.018,5.601-207.732,31.699-299.387,77.571C250.216,403.869,122.279,544.444,49.731,731.75
		C23.41,799.715,7.553,871.848,2.57,946.248c-0.247,1.154-0.519,2.471-0.796,3.924L0,959.46v9.456v67.999v5.94l0.704,5.899
		l1.65,13.851c1.507,12.658,3.065,25.745,4.632,38.684l0,0c10.034,83.671,34.267,164.297,72.027,239.643
		c84.033,167.941,213.84,291.228,385.819,366.438c77.454,33.871,160.133,54.061,245.841,60.036c1.308,0.279,2.839,0.594,4.518,0.906
		l9.074,1.688h9.229h748.257h5.487l5.455-0.6c6.678-0.734,13.354-1.453,20.029-2.174c12.477-1.344,25.377-2.734,38.26-4.22l0,0
		c98.535-11.294,193.559-39.313,282.445-83.282c75.82-37.35,144.993-84.122,205.589-139.011
		c60.569-54.866,113.928-119.072,158.594-190.836c60.131-96.641,99.862-201.162,118.095-310.673l0.007-0.041l0.007-0.039
		c3.872-23.372,6.237-45.856,8.524-67.602c1.006-9.556,1.957-18.598,3.015-27.546c0.086-0.465,0.211-1.121,0.311-1.643
		c0.264-1.383,0.592-3.104,0.931-5.035l1.5-8.56v-8.691v-70.082v-5.298l-0.561-5.269c-0.732-6.894-1.444-13.792-2.156-20.693
		c-1.343-13.021-2.731-26.485-4.272-39.999c-11.271-98.654-39.358-193.761-83.485-282.702
		c-37.535-75.972-84.526-145.235-139.669-205.867c-55.137-60.626-119.678-114-191.827-158.639
		c-96.053-59.42-199.964-98.807-308.851-117.07c-24.545-4.106-48.106-6.522-70.892-8.857c-9.949-1.02-19.349-1.984-28.665-3.067
		c-0.094-0.011-0.254-0.031-0.496-0.064c-0.244-0.037-0.487-0.073-0.731-0.109c-0.409-0.059-0.816-0.118-1.225-0.181
		c-0.067-0.01-0.135-0.021-0.202-0.032l0,0c-0.851-0.133-1.701-0.27-2.55-0.405c-0.862-0.138-1.723-0.276-2.583-0.412L1484.151,0
		L1484.151,0z"/>
	<polygon fill="#DA1F26" points="986.473,1520.892 986.473,1520.892 986.472,1520.892 	"/>
</g>
</svg>
