<?xml version="1.0" encoding="utf-8"?>
<!-- Generator: Adobe Illustrator 16.0.0, SVG Export Plug-In . SVG Version: 6.00 Build 0)  -->
<!DOCTYPE svg PUBLIC "-//W3C//DTD SVG 1.1//EN" "http://www.w3.org/Graphics/SVG/1.1/DTD/svg11.dtd">
<svg version="1.1"
	 id="svg3476" sodipodi:docname="CSS3.svg" inkscape:version="0.91 r13725" xmlns:inkscape="http://www.inkscape.org/namespaces/inkscape" xmlns:sodipodi="http://sodipodi.sourceforge.net/DTD/sodipodi-0.dtd" xmlns:cc="http://creativecommons.org/ns#" xmlns:dc="http://purl.org/dc/elements/1.1/" xmlns:svg="http://www.w3.org/2000/svg" xmlns:rdf="http://www.w3.org/1999/02/22-rdf-syntax-ns#"
	 xmlns="http://www.w3.org/2000/svg" xmlns:xlink="http://www.w3.org/1999/xlink" x="0px" y="0px" width="425px" height="480px"
	 viewBox="0 0 425 480" enable-background="new 0 0 425 480" xml:space="preserve">
<sodipodi:namedview  inkscape:window-y="27" inkscape:pageshadow="2" inkscape:window-width="1366" inkscape:window-height="704" inkscape:pageopacity="0.0" fit-margin-bottom="0" fit-margin-right="0" inkscape:window-x="0" inkscape:window-maximized="1" inkscape:current-layer="layer1" inkscape:document-units="px" id="base" pagecolor="#ffffff" bordercolor="#666666" showgrid="false" fit-margin-top="0" fit-margin-left="0" inkscape:cx="181.367" inkscape:zoom="0.35" inkscape:cy="256" borderopacity="1.0">
	</sodipodi:namedview>
<g>
	<polygon id="polygon2989" fill="#264DE4" points="425,0 386.282,431.949 212.241,480 38.678,432.017 0,0 	"/>
	<polygon id="polygon2991" fill="#2965F1" points="353.135,404.444 386.223,35.324 212.5,35.324 212.5,443.272 	"/>
	<polygon id="polygon2993" fill="#EBEBEB" points="88.668,195.553 93.437,248.538 212.5,248.538 212.5,195.553 	"/>
	<polygon id="polygon2995" fill="#EBEBEB" points="212.5,88.31 212.317,88.31 79.086,88.31 83.922,141.295 212.5,141.295 	"/>
	<polygon id="polygon2997" fill="#EBEBEB" points="212.5,388.289 212.5,333.161 212.267,333.223 153.012,317.289 149.224,275.031 
		120.431,275.031 95.814,275.031 103.268,358.226 212.255,388.355 	"/>
	<polygon id="polygon3005" fill="#FFFFFF" points="277.833,248.538 271.658,317.255 212.317,333.205 212.317,388.331 
		321.391,358.226 322.191,349.273 334.694,209.781 335.992,195.553 345.597,88.31 212.317,88.31 212.317,141.295 287.289,141.295 
		282.448,195.553 212.317,195.553 212.317,248.538 	"/>
</g>
</svg>
