<?xml version="1.0" encoding="utf-8"?>
<!-- Generator: Adobe Illustrator 16.0.0, SVG Export Plug-In . SVG Version: 6.00 Build 0)  -->
<!DOCTYPE svg PUBLIC "-//W3C//DTD SVG 1.1//EN" "http://www.w3.org/Graphics/SVG/1.1/DTD/svg11.dtd">
<svg version="1.1" xmlns="http://www.w3.org/2000/svg" xmlns:xlink="http://www.w3.org/1999/xlink" x="0px" y="0px" width="685px"
	 height="685px" viewBox="0.5 0 685 685" enable-background="new 0.5 0 685 685" xml:space="preserve">
<g id="Layer_2">
</g>
<g id="Layer_1">
	<g>
		<path fill="#FFFFFF" d="M661.645,285.422L400.07,23.888C384.671,8.484,364.188,0,342.396,0c-21.785,0-42.268,8.481-57.678,23.882
			l-51.093,51.101l-3.757,3.748l-26.158,26.153L24.347,284.208c-31.795,31.821-31.795,83.572-0.002,115.363l261.587,261.542
			C301.332,676.516,321.813,685,343.604,685c21.779,0,42.261-8.479,57.674-23.875l260.367-260.343
			C693.45,368.979,693.452,317.229,661.645,285.422z"/>
		<g>
			<path fill="#F05133" d="M631.251,315.815L369.678,54.283c-15.062-15.066-39.492-15.066-54.565,0l-54.311,54.318l68.896,68.889
				c16.013-5.411,34.373-1.779,47.133,10.985c12.837,12.843,16.437,31.357,10.889,47.428l66.411,66.398
				c16.072-5.541,34.602-1.956,47.433,10.894c17.931,17.928,17.931,46.979,0,64.919c-17.942,17.935-46.995,17.935-64.945,0
				c-13.482-13.495-16.821-33.313-9.981-49.924l-61.938-61.927v162.962c4.368,2.164,8.495,5.046,12.133,8.684
				c17.93,17.928,17.93,46.979,0,64.926c-17.93,17.921-47.002,17.921-64.919,0c-17.93-17.954-17.93-47.004,0-64.926
				c4.433-4.427,9.564-7.777,15.041-10.02V263.408c-5.477-2.242-10.595-5.561-15.041-10.02
				c-13.581-13.573-16.848-33.509-9.884-50.185l-67.918-67.924L54.746,314.604c-15.067,15.079-15.067,39.508,0,54.573
				l261.585,261.54c15.062,15.065,39.485,15.065,54.566,0l260.354-260.328C646.316,355.323,646.316,330.883,631.251,315.815
				L631.251,315.815z"/>
		</g>
	</g>
</g>
</svg>
