<?xml version="1.0" encoding="utf-8"?>
<!-- Generator: Adobe Illustrator 16.0.0, SVG Export Plug-In . SVG Version: 6.00 Build 0)  -->
<!DOCTYPE svg PUBLIC "-//W3C//DTD SVG 1.1//EN" "http://www.w3.org/Graphics/SVG/1.1/DTD/svg11.dtd">
<svg version="1.1"
	 id="svg64" sodipodi:docname="Javascript-shield.svg" inkscape:version="0.92.2 2405546, 2018-03-11" xmlns:inkscape="http://www.inkscape.org/namespaces/inkscape" xmlns:sodipodi="http://sodipodi.sourceforge.net/DTD/sodipodi-0.dtd" xmlns:cc="http://creativecommons.org/ns#" xmlns:dc="http://purl.org/dc/elements/1.1/" xmlns:svg="http://www.w3.org/2000/svg" xmlns:rdf="http://www.w3.org/1999/02/22-rdf-syntax-ns#"
	 xmlns="http://www.w3.org/2000/svg" xmlns:xlink="http://www.w3.org/1999/xlink" x="0px" y="0px" width="425px" height="480px"
	 viewBox="0 0 425 480" enable-background="new 0 0 425 480" xml:space="preserve">
<sodipodi:namedview  inkscape:window-y="27" inkscape:pageshadow="2" inkscape:window-width="1920" inkscape:window-height="1016" inkscape:pageopacity="0" fit-margin-bottom="0" fit-margin-right="0" inkscape:window-x="0" inkscape:window-maximized="1" inkscape:current-layer="svg64" id="namedview66" pagecolor="#ffffff" bordercolor="#666666" objecttolerance="10" gridtolerance="10" guidetolerance="10" showgrid="false" fit-margin-top="0" fit-margin-left="0" inkscape:cx="364.99449" inkscape:zoom="1.0628712" inkscape:cy="300.83113" borderopacity="1">
	</sodipodi:namedview>
<path id="path118" inkscape:connector-curvature="0" fill="#FFFFFF" d="M1.426,0l0.067,5.331
	c0.037,2.933,8.559,100.017,18.938,215.743l18.872,210.412l84.819,23.672c46.651,13.019,85.782,23.739,86.959,23.819
	c1.177,0.083,40.825-10.526,88.107-23.577c75.808-20.925,86.043-24.076,86.585-26.665c0.755-3.609,37.879-421.07,37.841-425.536
	L423.589,0H212.507H1.426z"/>
<path id="path88" sodipodi:nodetypes="sccsssccsscsccccccccsscscssscsscccsccsscccc" inkscape:connector-curvature="0" fill="#EAEBEC" d="
	M124.795,456.573l-85.574-23.844l-1.118-6.311C37.109,420.812,0,7.66,0,2.202c0-1.976,21.667-2.2,212.508-2.2
	c201.444,0,212.508,0.129,212.492,2.487c-0.067,10.187-38.479,428.809-39.421,429.642c-1.193,1.054-166.823,47.05-172.358,47.865
	C211.652,480.229,171.861,469.688,124.795,456.573L124.795,456.573z M266.467,372.324c28.763-7.907,52.711-14.786,53.217-15.284
	c0.508-0.498,3.874-34.493,7.48-75.543c3.606-41.052,6.921-77.358,7.366-80.682l0.809-6.041H273.21h-62.128v26.301v26.301h33.544
	h33.543l-0.667,3.198c-0.368,1.76-1.795,16.879-3.171,33.599c-1.458,17.716-3.188,31.082-4.145,32.036
	c-0.903,0.9-14.571,5.071-30.373,9.271l-28.732,7.632v26.795c0,18.289,0.491,26.795,1.545,26.795
	C213.477,386.701,237.705,380.232,266.467,372.324L266.467,372.324z M334.521,161.719c-0.942-6.966-9.34-100.403-9.34-103.926
	c0-2.139-4.937-2.345-56.336-2.345h-56.336V82.95v27.503l25.315,0.973c13.924,0.534,28.577,1.348,32.563,1.809l7.247,0.836
	l1.76,21.514c0.968,11.832,2.12,23.912,2.563,26.844l0.802,5.331h26.291h26.291L334.521,161.719z"/>
<path id="path80" sodipodi:nodetypes="ccsccccccscccccscscsccsssccscscssccccsccscsscccccccc" inkscape:connector-curvature="0" fill="#F0BE25" d="
	M124.123,455.157l-84.819-23.672L20.432,221.075C10.053,105.349,1.53,8.265,1.493,5.333L1.426,0.001h211.082H423.59l0.027,3.199
	c0.038,4.466-37.086,421.926-37.842,425.536c-0.543,2.589-10.776,5.739-86.585,26.665c-47.282,13.051-86.932,23.66-88.108,23.577
	C209.904,478.896,170.774,468.176,124.123,455.157L124.123,455.157z M266.532,373.33c29.32-8.126,53.726-15.444,54.234-16.267
	c0.509-0.82,4.012-36.552,7.784-79.402c3.773-42.852,7.168-79.032,7.545-80.4c0.649-2.351-4.34-2.487-90.401-2.487h-91.088
	l3.878-40.875c2.133-22.48,3.93-40.931,3.993-41.003c0.063-0.07,13.432-0.496,29.708-0.944c26.689-0.735,81.728,1.387,83.569,3.223
	c0.688,0.686,5.213,44.943,5.213,50.985c0,2.979,0.403,3.023,27.637,3.023h27.636l-0.651-6.042
	c-0.357-3.323-2.699-29.073-5.202-57.223l-4.551-51.181l-106.583-0.364c-84.791-0.29-106.583,0-106.592,1.422
	c-0.007,0.982-0.628,7.224-1.381,13.871c-1.822,16.083-15.722,171.479-15.722,175.771v3.362h90.69h90.69l-0.808,5.332
	c-0.444,2.931-1.854,17.806-3.133,33.053c-1.277,15.249-2.735,28.116-3.238,28.598c-1.329,1.273-54.68,15.479-58.008,15.447
	c-1.545-0.013-15.324-3.44-30.62-7.613l-27.812-7.589l-1.02-11.935c-0.561-6.562-1.414-15.93-1.896-20.817l-0.876-8.886h-26.985
	H95.558l0.06,5.332c0.112,9.97,6.598,77.128,7.54,78.067c1.089,1.086,104.734,30.127,107.925,30.24
	C212.258,388.069,237.211,381.455,266.532,373.33L266.532,373.33z"/>
<path id="path78" sodipodi:nodetypes="ccsccccccscccscccccccscsscccscscsscccccscsssscscccccs" inkscape:connector-curvature="0" fill="#E4A126" d="
	M124.123,455.157l-84.819-23.672L20.432,221.075C10.053,105.349,1.53,8.265,1.493,5.333L1.426,0.001h211.082H423.59l0.027,3.199
	c0.038,4.466-37.086,421.926-37.842,425.536c-0.543,2.589-10.776,5.739-86.585,26.665c-47.282,13.051-86.932,23.66-88.108,23.577
	C209.904,478.896,170.774,468.176,124.123,455.157L124.123,455.157z M282.301,423.488c37.312-10.262,68.54-19.38,69.396-20.259
	c1.333-1.369,33.558-353.419,33.428-365.197l-0.043-3.911h-86.287h-86.287v9.952v9.952H162.59c-38.978,0-49.92,0.39-49.929,1.777
	c-0.007,0.977-0.628,7.214-1.381,13.861c-1.822,16.083-15.722,171.479-15.722,175.771v3.362h58.475h58.475v41.229
	c0,32.049-0.396,41.221-1.782,41.201c-0.98-0.013-14.298-3.44-29.594-7.613l-27.812-7.589l-1.02-11.935
	c-0.561-6.562-1.414-15.93-1.896-20.817l-0.876-8.886h-26.985H95.558l0.06,5.332c0.171,15.249,6.789,77.495,8.341,78.451
	c0.943,0.581,25.753,7.688,55.132,15.791l53.417,14.735v26.725c0,14.699,0.44,26.726,0.977,26.726S244.989,433.752,282.301,423.488
	L282.301,423.488z M158.333,154.282c2.051-22.271,4.008-40.743,4.35-41.052c0.341-0.309,11.692-0.865,25.223-1.239l24.603-0.679
	v41.73v41.73h-28.951h-28.951L158.333,154.282z"/>
</svg>
