<?xml version="1.0" encoding="utf-8"?>
<!-- Generator: Adobe Illustrator 16.0.0, SVG Export Plug-In . SVG Version: 6.00 Build 0)  -->
<!DOCTYPE svg PUBLIC "-//W3C//DTD SVG 1.1//EN" "http://www.w3.org/Graphics/SVG/1.1/DTD/svg11.dtd">
<svg version="1.1" id="Layer_2" xmlns="http://www.w3.org/2000/svg" xmlns:xlink="http://www.w3.org/1999/xlink" x="0px" y="0px"
	 width="512px" height="114.934px" viewBox="0 0 512 114.934" enable-background="new 0 0 512 114.934" xml:space="preserve">
<g>
	<path fill="#2a2a2a" d="M292.234,114.974c-36.031,0-72.063,0.001-108.094-0.002c-36.533-0.002-75.689,3.992-111.922-0.471
		c14.201-9.754,32.136-15.764,49.148-18.096c6.062-0.831,43.453-2.461,45.612,1.685c-22.243-42.761,61.407-42.131,58.931-24.23
		c2.792-20.296,6.296-37.913,21.106-53.229C262.934,4.177,297.829-7.113,319.73,3.467c17.73,8.569,30.953,15.282,41.427,32.543
		c5.13,8.455,7.558,19.292,9.356,28.901c1.01,5.383-0.62,15.1,2.234,19.405c7.256-18.14,26.843-39.017,49.506-31.473
		c10.128,3.383,15.578,8.456,23.993,13.344c3.828,2.223,13.033,24.491,11.966,25.134c9.707-5.856,18.078-7.272,28.86-1.699
		c5.971,3.086,26.978,16.487,24.918,25.077c-0.96,4.005-93.055,0.275-102.319,0.275C370.526,114.974,331.38,114.974,292.234,114.974
		z"/>
	<path fill="#2a2a2a" d="M27.89,114.974c-8.009,0-20.326,2.111-27.89-0.395c8.101-21.475,45.036-15.412,55.743-0.094
		C47.494,116.704,36.44,114.974,27.89,114.974z"/>
</g>
</svg>
