<?xml version="1.0" encoding="utf-8"?>
<!-- Generator: Adobe Illustrator 16.0.0, SVG Export Plug-In . SVG Version: 6.00 Build 0)  -->
<!DOCTYPE svg PUBLIC "-//W3C//DTD SVG 1.1//EN" "http://www.w3.org/Graphics/SVG/1.1/DTD/svg11.dtd">
<svg version="1.1" id="Layer_2" xmlns="http://www.w3.org/2000/svg" xmlns:xlink="http://www.w3.org/1999/xlink" x="0px" y="0px"
	 width="512px" height="114.934px" viewBox="0 0 512 114.934" enable-background="new 0 0 512 114.934" xml:space="preserve">
<g>
	<path fill="#2a2a2a" d="M505.453,78.073c-2.6-2.842-12.101-8.683-13.08-11.86c-1.221-3.953-6.45-10.854-9.916-13.09
		c-10.902-7.027-21.854-13.663-35.505-8.993c-10.451,3.575-22.604,12.699-26.065,23.813c-0.702,2.256-12.404-1.561-14.803-1.45
		c-8.524,0.39-9.047,7.205-14.027-0.69c-16.847-26.699-51.178-24.882-65.346,3.084c-2.681,5.292-2.54,8.987-8.618,9.167
		c-7.401,0.22-12.579,1.375-18.27,6.378c-3.072,2.701-3.533,6.912-7.779,6.872c-6.971-0.063-13.205-2.553-20.55-1.528
		c-8.663,1.207-29.696,8.936-8.682,10.439c7.146,0.512,14.668-1.206,21.599-0.43c3.129,0.352,5.759-1.446,8.808-1.152
		c3.309,0.319,5.827,3.051,9.264,3.5c5.361,0.699,17.393-0.834,21.671,2.287c5.337,3.895,12.356,5.566,18.692,6.996
		c12.428,2.804,29.394,2.645,41.336-1.849c10.484-3.943,18.026-3.658,29.653-2.845c12.03,0.843,23.926,6.387,36.824,6.4
		C467.248,113.141,533.101,108.323,505.453,78.073C502.059,74.361,509.362,82.349,505.453,78.073z"/>
	<path fill="#2a2a2a" d="M205.317,79.781c-2.6-1.143-8.834-2.563-11.548-1.623c-3.45,1.196-10.072,6.175-13.13,6.469
		c-1.312,0.127-9.484-8.501-11.469-9.569c-4.427-2.381-9.883-4.012-14.888-4.486c-1.095-0.104-10.615,1.512-10.442-0.871
		c0.243-3.401-1.658-8.843-2.694-11.974c-3.63-10.969-9.753-21.225-19.113-28.188c-18.579-13.82-38.768-5.57-51.325,11.785
		c-2.083,2.883-4.145,6.384-5.11,9.811c-0.937,3.326-7.298,2.377-9.951,3.492c-11.58,4.873-13.207,16.952-17.329,27.181
		c-8.913-7.904-24.524-7.442-33.253,0.78c-4.715,4.438-6.75,12.422-3.802,18.414c3.58,7.275,14.905,5.4,21.215,5.524
		c3.673,0.068,8.392-1.646,11.844-2.901c7.858-2.86,8.438-1.619,15.913,0.258c5.173,1.299,9.929,1.506,15.215,1.704
		c7.242,0.267,13.35,7.909,20.956,7.582c10.112-0.437,20.11,3.406,30.578,0.343c6.704-1.962,12.943-5.945,19.536-7.684
		c8.876-2.341,19.657,0.382,28.849-0.618c8.475-0.921,13.543-4.756,22.067-2.479c5.387,1.438,12.779,2.989,18.393,2.539
		C225.57,103.688,218.708,85.651,205.317,79.781C203.28,78.885,209.867,81.775,205.317,79.781z"/>
	<path fill="#2a2a2a" d="M259.313,29.938c5.063,2.21,15.242,1.022,20.58,0.223c10.325-1.546,3.133-10.546-2.86-12.699
		c-7.07-2.54-12.972-2.089-19.974,0.262c-3.222,1.082-7.526-12.839-10.396-15.304c-16.449-14.124-24.173,24.915-24.766,33.309
		C220.382,56.946,255.878,28.444,259.313,29.938C260.449,30.434,257.441,29.124,259.313,29.938z"/>
</g>
</svg>
