<?xml version="1.0" encoding="utf-8"?>
<!-- Generator: Adobe Illustrator 16.0.0, SVG Export Plug-In . SVG Version: 6.00 Build 0)  -->
<!DOCTYPE svg PUBLIC "-//W3C//DTD SVG 1.1//EN" "http://www.w3.org/Graphics/SVG/1.1/DTD/svg11.dtd">
<svg version="1.1" id="Layer_2_1_" xmlns="http://www.w3.org/2000/svg" xmlns:xlink="http://www.w3.org/1999/xlink" x="0px" y="0px"
	 width="512px" height="114.934px" viewBox="0 0 512 114.934" enable-background="new 0 0 512 114.934" xml:space="preserve">
<g id="Layer_2">
	<g>
		<path fill="#2a2a2a" d="M232.436,114.933c-63.333,0-126.868,1.882-190.124,1.268c-19.296-0.188-51.505-13.29-40.509-39.345
			c7-16.584,30.969-5.854,40.19,2.454c4.772-16.888-15.458-41.601,8.517-53.09c16.131-7.733,46.638,9.122,49.42,26.925
			c4.387-24.917,17.906-54.072,48.068-52.003c11.962,0.821,22.207,8.3,26.903,19.292c6.4,14.98-3.34,31.215,1.865,44.906
			c-2.305-6.062,22.208-12.765,25.708-12.688c22.487,0.504,31.002,21.214,34.912,39.826c14.807-14.512,48.866-36.207,56.922-3.735
			c3.645,14.688,44.152-15.804,50.977,20.32c33.107-13.346,69.71-10.977,101.287,5.426c-7.675-3.986-29.55,0.442-37.651,0.443
			c-21.438,0-42.877,0-64.315,0C307.215,114.933,269.825,114.933,232.436,114.933z"/>
		<path fill="#2a2a2a" d="M492.988,114.933c-5.104,0-12.727,0.938-17.675-0.311c9.374-4.896,19.133-10.72,30.263-7.192
			C524.817,113.533,496.739,114.933,492.988,114.933z"/>
	</g>
</g>
</svg>
