<?xml version="1.0" encoding="utf-8"?>
<!-- Generator: Adobe Illustrator 16.0.0, SVG Export Plug-In . SVG Version: 6.00 Build 0)  -->
<!DOCTYPE svg PUBLIC "-//W3C//DTD SVG 1.1//EN" "http://www.w3.org/Graphics/SVG/1.1/DTD/svg11.dtd">
<svg version="1.1" id="Layer_2_1_" xmlns="http://www.w3.org/2000/svg" xmlns:xlink="http://www.w3.org/1999/xlink" x="0px" y="0px"
	 width="512px" height="114.934px" viewBox="0 0 512 114.934" enable-background="new 0 0 512 114.934" xml:space="preserve">
<g id="Layer_2">
	<g>
		<path fill="#2a2a2a" d="M67.64,48.693c13.867,1.399,20.403,11.956,31.075,18.385c2.32-9.022-5.36-26.963,6.33-32.871
			c17.145-8.663,31.481,16.218,44.39,21.388c0.741-11.848-5.008-36.385,12.151-39.6c9.646-1.809,21.934,10.946,28.256,16.624
			c3.358,3.009,14.602,20.354,19.79,20.072c3.681-0.199,19.974-28.987,23.049-33.158c6.348-8.621,18.532-21.47,30.692-19.319
			c20.161,3.564,20.472,32.684,25.934,47.004c7.098-11.004,11.07-19.643,24.719-9.986c7.043,5.01,21.658,32.131,27.916,33.03
			c-0.736-0.105,10.069-11.073,12.351-11.974c5.313-2.121,14.39-0.211,19.455,1.887c6.285,2.603,43.18,20.174,41.187,27.762
			c-0.889,2.958-51.506,0.842-53.931,0.843c-47.271,0.018-94.538,0.026-141.808,0.027c-47.269,0.001-94.538-0.005-141.807-0.018
			c-19.204-0.006-38.717,0.995-57.884,0.152C14.579,88.727,4.312,89.933,0,88.278c7.47-13.141,27.926-16.701,41.021-19.679
			C54.44,65.55,52.245,49.7,67.64,48.693C72.16,49.149,61.088,49.122,67.64,48.693z"/>
		<path fill="#2a2a2a" d="M504.23,108.833c-47.222,4.941-94.877,5.715-142.42,5.715c-26.785,0-54.025-2.357-80.662-1.197
			c-14.168,0.617-57.872,2.385-69.869-5.341c11.264-7.971,51.466-4.754,65.471-4.575c26.974,0.347,54.508-2.129,81.405-3.127
			c23.236-0.865,51.513-2.227,74.424,1.64c16.205,2.761,33.696-1.189,49.753,2.88c7.319,1.833,23.773-1.481,29.666,3.249
			C510.146,110.164,507.558,110.417,504.23,108.833C495.582,109.738,506.559,108.833,504.23,108.833z"/>
	</g>
</g>
</svg>
